<svg xmlns="http://www.w3.org/2000/svg" width="512" height="512" viewBox="0 0 512 512">
  <defs>
    <linearGradient id="bg" x1="0%" y1="0%" x2="100%" y2="100%">
      <stop offset="0%"   stop-color="#F9A8C9"/>
      <stop offset="40%"  stop-color="#E879A0"/>
      <stop offset="75%"  stop-color="#A855C8"/>
      <stop offset="100%" stop-color="#7C3AED"/>
    </linearGradient>
    <linearGradient id="heartFill" x1="20%" y1="0%" x2="80%" y2="100%">
      <stop offset="0%"   stop-color="#F9A8C9"/>
      <stop offset="50%"  stop-color="#E879A0"/>
      <stop offset="100%" stop-color="#A855C8"/>
    </linearGradient>
    <radialGradient id="heartGlow" cx="50%" cy="40%" r="60%">
      <stop offset="0%"   stop-color="#FFFFFF" stop-opacity="0.25"/>
      <stop offset="100%" stop-color="#FFFFFF" stop-opacity="0"/>
    </radialGradient>
    <linearGradient id="figureGrad" x1="0%" y1="0%" x2="100%" y2="100%">
      <stop offset="0%"   stop-color="#FFFFFF" stop-opacity="0.95"/>
      <stop offset="100%" stop-color="#F0D0FF" stop-opacity="0.85"/>
    </linearGradient>
    <filter id="glow" x="-30%" y="-30%" width="160%" height="160%">
      <feGaussianBlur stdDeviation="14" result="blur"/>
      <feMerge><feMergeNode in="blur"/><feMergeNode in="SourceGraphic"/></feMerge>
    </filter>
    <filter id="softBlur"><feGaussianBlur stdDeviation="4"/></filter>
    <clipPath id="hClip">
      <path d="M256 422 C139 352 48 288 48 202 C48 144 96 101 155 101 C190 101 221 118 256 150 C291 118 322 101 357 101 C416 101 464 144 464 202 C464 288 373 352 256 422Z"/>
    </clipPath>
  </defs>

  <rect x="0" y="0" width="512" height="512" rx="116" ry="116" fill="url(#bg)"/>

  <path d="M256 422 C139 352 48 288 48 202 C48 144 96 101 155 101 C190 101 221 118 256 150 C291 118 322 101 357 101 C416 101 464 144 464 202 C464 288 373 352 256 422Z"
        fill="none" stroke="rgba(255,255,255,0.2)" stroke-width="6" filter="url(#glow)"/>

  <path d="M256 422 C139 352 48 288 48 202 C48 144 96 101 155 101 C190 101 221 118 256 150 C291 118 322 101 357 101 C416 101 464 144 464 202 C464 288 373 352 256 422Z"
        fill="url(#heartFill)"/>

  <path d="M155 110 C107 139 59 182 53 234 C48 267 64 304 91 330 C112 288 112 230 149 186 C168 163 192 144 221 128Z"
        fill="url(#heartGlow)" clip-path="url(#hClip)"/>

  <g clip-path="url(#hClip)" fill="url(#figureGrad)">
    <ellipse cx="235" cy="181" rx="29" ry="32"/>
    <rect x="221" y="211" width="24" height="19" rx="9"/>
    <path d="M195 229 C187 248 183 278 187 304 C191 323 205 336 224 341 C237 344 253 342 267 337 C281 332 290 316 290 297 C290 275 281 251 270 235 C262 224 248 218 235 218 C222 218 206 224 195 229Z"/>
    <path d="M187 304 C174 314 166 329 170 347 C174 360 194 365 213 360 C227 355 240 344 251 336" stroke="url(#figureGrad)" stroke-width="21" stroke-linecap="round" fill="none"/>
  </g>

  <g clip-path="url(#hClip)" fill="url(#figureGrad)" opacity="0.88">
    <ellipse cx="283" cy="272" rx="24" ry="27"/>
    <path d="M264 297 C256 310 256 329 264 342 C272 355 291 358 305 348 C319 338 324 318 318 299 C313 285 299 275 286 275 C275 275 267 284 264 297Z"/>
  </g>

  <ellipse cx="170" cy="155" rx="35" ry="45" fill="white" opacity="0.2" filter="url(#softBlur)" clip-path="url(#hClip)"/>
  <ellipse cx="160" cy="139" rx="13" ry="19" fill="white" opacity="0.5" clip-path="url(#hClip)"/>
</svg>
